<?xml version="1.0" encoding="UTF-8"?><svg id="Calque_2" xmlns="http://www.w3.org/2000/svg" viewBox="0 0 323.31 238.91"><defs><style>.cls-1{fill:none;stroke:#72c5c4;stroke-miterlimit:10;stroke-width:5px;}.cls-2{fill:#fff;font-family:AkayaKanadaka-Regular, AkayaKanadaka;font-size:36px;}.cls-3{letter-spacing:0em;}.cls-4{letter-spacing:0em;}.cls-5{letter-spacing:0em;}</style></defs><g id="Calque_1-2"><path class="cls-1" d="m1.13,151.97S93.13,105.23,79.13,20.12c0,0,32,34.88,21,59.3-11,24.42,62-39.07,39-73.95,0,0-33.69,89.42,33,116.5"/><text class="cls-2" transform="translate(153.35 100.24)"><tspan x="0" y="0">edi</tspan></text><text class="cls-2" transform="translate(226.51 126.89)"><tspan class="cls-4" x="0" y="0">t</tspan><tspan class="cls-5" x="11.7" y="0">h</tspan><tspan class="cls-3" x="30.31" y="0">è</tspan><tspan x="45.79" y="0">que</tspan></text><text class="cls-2" transform="translate(245.51 208.89)"><tspan x="0" y="0">fpa</tspan></text><path class="cls-1" d="m150.13,189.47s25.42-11.22,42-46c15.03-31.53,21.32-85.79,22-106,0,0-3,186,47,194"/><path class="cls-1" d="m192.13,143.47l3.95,7.34c6.46,12,17.18,21.15,30.05,25.66h0"/></g></svg>